<svg xmlns="http://www.w3.org/2000/svg" width="512" height="512" viewBox="0 0 512 512">
<g>
<path d="M 43.67 237.68 C44.87,221.01 47.96,206.29 53.61,189.05 C68.70,143.04 99.27,103.74 141.52,76.02 C162.52,62.25 190.52,51.46 217.92,46.29 C215.85,46.91 213.92,47.67 213.38,48.12 C212.76,48.62 211.52,48.75 210.63,48.41 C209.67,48.04 209.00,48.29 209.00,49.01 C209.00,49.74 208.20,50.02 207.00,49.71 C205.90,49.42 204.73,49.63 204.40,50.16 C204.07,50.70 203.17,50.89 202.40,50.60 C201.63,50.30 201.00,50.53 201.00,51.09 C201.00,51.66 200.21,52.01 199.25,51.86 C198.29,51.71 196.38,52.22 195.00,53.00 C193.62,53.77 192.05,54.51 191.50,54.63 C184.52,56.25 159.18,67.06 153.70,70.76 C151.06,72.54 148.58,74.00 148.19,74.00 C147.30,74.00 134.22,82.83 129.78,86.43 C127.98,87.89 125.50,89.85 124.27,90.79 C123.04,91.73 120.47,93.96 118.57,95.75 C116.66,97.54 114.42,99.00 113.60,99.00 C112.77,99.00 111.31,100.64 110.36,102.66 C109.33,104.82 106.90,107.37 104.38,108.91 C102.05,110.33 99.89,112.44 99.59,113.58 C99.29,114.72 97.86,116.93 96.42,118.50 C73.71,143.00 54.15,184.43 48.98,219.00 C48.36,223.12 47.50,227.18 47.07,228.01 C46.63,228.85 46.50,231.01 46.76,232.83 C47.16,235.56 46.88,236.22 45.12,236.68 C44.51,236.84 44.02,237.21 43.67,237.68 ZM 323.56 458.11 C326.29,457.06 328.77,455.86 330.63,454.63 C332.76,453.22 336.04,451.95 337.93,451.81 C339.91,451.66 342.34,450.57 343.67,449.24 C344.94,447.97 349.02,445.45 352.74,443.65 C361.57,439.35 367.30,435.83 377.52,428.43 C418.14,398.99 448.38,355.13 459.60,309.39 C461.07,303.40 462.62,297.60 463.06,296.50 C463.87,294.43 464.05,292.71 463.98,287.33 C463.96,284.96 464.48,283.98 466.05,283.49 C467.97,282.87 468.02,282.68 466.57,281.08 C464.33,278.60 464.56,274.93 467.00,274.29 C467.62,274.13 468.10,273.78 468.43,273.34 C468.30,275.83 468.13,278.02 467.93,279.79 C460.98,343.12 425.55,399.89 370.48,435.97 C357.68,444.36 340.66,452.29 323.56,458.11 ZM 467.55 215.82 C467.22,215.31 466.70,214.89 466.00,214.71 C463.60,214.08 463.35,210.78 465.58,208.94 C466.99,207.76 466.92,207.45 464.88,205.91 C462.86,204.39 462.73,203.88 463.79,201.56 C464.79,199.37 464.73,198.83 463.44,198.34 C462.33,197.91 462.07,196.96 462.51,194.97 C462.87,193.33 462.65,191.90 461.98,191.49 C461.35,191.10 461.10,189.74 461.42,188.45 C461.74,187.17 461.56,185.85 461.02,185.51 C460.48,185.18 460.04,183.91 460.04,182.70 C460.05,181.49 459.61,178.25 459.08,175.50 C458.54,172.75 457.66,168.19 457.13,165.36 C453.67,147.10 445.75,119.29 433.97,84.00 C429.65,71.07 425.39,57.26 424.49,53.31 C422.67,45.25 421.19,44.62 418.66,50.83 C414.56,60.88 398.77,92.02 397.71,92.14 C396.80,92.24 395.98,92.33 395.24,92.40 C396.91,89.82 402.32,79.32 408.38,66.85 C415.54,52.12 421.46,41.09 421.94,41.60 C423.29,43.04 446.46,114.02 450.93,130.43 C459.00,159.99 464.94,190.57 467.55,215.82 ZM 393.77 92.52 C389.66,92.81 388.52,92.31 386.35,90.41 C375.78,81.15 331.41,56.00 325.65,56.00 C323.66,56.00 319.81,54.18 318.92,52.82 C318.74,52.55 317.98,52.23 316.93,51.95 C320.01,52.68 324.42,54.00 328.19,55.37 C348.21,62.62 367.04,72.88 384.65,86.11 C388.51,89.01 392.08,91.51 393.77,92.52 ZM 468.58 270.48 C468.34,270.12 467.98,269.82 467.50,269.64 C466.25,269.16 466.00,266.24 466.00,252.00 C466.00,237.76 466.25,234.84 467.50,234.36 C468.03,234.16 468.42,233.70 468.68,233.09 C469.08,245.07 469.05,259.82 468.58,270.48 ZM 43.50 270.17 C43.23,265.81 43.08,261.41 43.07,256.97 C43.04,251.54 43.16,246.42 43.43,241.48 C43.68,241.87 44.03,242.18 44.50,242.36 C45.73,242.83 46.00,245.30 46.00,255.86 C46.00,266.43 45.73,268.89 44.50,269.36 C44.08,269.52 43.74,269.81 43.50,270.17 ZM 274.34 468.22 C274.98,467.92 275.63,467.50 276.28,466.99 C278.31,465.40 279.36,465.19 281.38,465.95 C282.78,466.49 284.16,466.54 284.45,466.08 C284.89,465.37 293.08,464.06 300.55,463.51 C301.68,463.43 303.10,463.06 303.71,462.68 C304.32,462.30 307.13,461.77 309.96,461.50 C312.33,461.28 315.00,460.75 317.68,460.03 C310.44,462.29 303.28,464.13 296.50,465.43 C289.93,466.70 282.31,467.64 274.34,468.22 ZM 268.11 43.56 C267.79,43.74 267.56,43.97 267.46,44.25 C266.80,45.97 244.80,45.91 244.23,44.19 C244.09,43.77 243.77,43.48 243.31,43.28 C250.85,43.01 259.61,43.14 268.11,43.56 ZM 242.37 468.67 C242.97,468.45 243.49,468.11 243.89,467.64 C244.77,466.57 246.15,466.48 250.23,467.22 C253.82,467.88 257.31,467.81 261.42,467.00 C266.62,465.97 267.55,466.03 268.56,467.41 C268.91,467.90 269.35,468.27 269.84,468.52 C260.58,469.04 251.06,469.10 242.37,468.67 ZM 48.55 304.91 C46.24,294.98 44.67,284.86 43.82,274.52 C44.13,274.89 44.52,275.17 45.00,275.29 C47.26,275.88 47.75,279.85 45.80,281.80 C44.88,282.72 45.04,283.31 46.53,284.40 C48.24,285.65 48.30,286.08 47.09,288.34 C45.92,290.52 45.96,291.60 47.40,295.98 C48.32,298.79 48.85,301.44 48.58,301.87 C48.31,302.30 48.32,303.36 48.55,304.91 ZM 468.48 228.11 C468.13,227.40 467.64,226.88 467.00,226.71 C464.54,226.07 464.14,220.27 466.50,219.36 C467.14,219.12 467.56,218.67 467.78,218.15 C467.84,218.77 467.90,219.39 467.95,220.00 C468.16,222.32 468.34,225.07 468.48,228.11 ZM 304.04 48.66 C303.60,48.52 303.14,48.35 302.68,48.16 C301.08,47.50 298.17,47.27 295.93,47.63 C293.43,48.03 292.00,47.87 292.00,47.20 C292.00,45.47 287.86,44.61 286.91,46.14 C286.25,47.22 285.79,47.09 284.64,45.52 C284.41,45.21 284.21,44.95 284.03,44.75 C293.81,45.74 301.56,47.13 304.04,48.66 ZM 239.22 43.48 C238.16,43.84 237.12,44.41 236.32,45.16 C234.17,47.19 233.91,47.22 232.18,45.66 C231.49,45.04 230.87,44.59 230.31,44.34 C231.63,44.17 232.95,44.02 234.26,43.88 C235.80,43.72 237.47,43.59 239.22,43.48 ZM 228.59 467.44 C222.99,466.68 217.35,465.67 211.70,464.41 C215.40,465.18 219.54,465.60 222.13,465.30 C225.29,464.92 227.00,465.10 227.00,465.79 C227.00,466.67 228.10,467.32 229.37,467.55 C229.11,467.51 228.85,467.48 228.59,467.44 ZM 236.18 467.41 C236.77,467.83 237.39,468.16 238.01,468.40 C235.19,468.20 232.47,467.94 229.92,467.62 C230.89,467.69 231.88,467.51 232.51,467.00 C233.60,466.09 234.42,466.18 236.18,467.41 ZM 281.47 44.50 C281.22,44.62 280.93,44.77 280.61,44.94 C278.34,46.16 277.79,46.12 276.18,44.66 C275.90,44.41 275.56,44.18 275.17,43.99 C277.33,44.14 279.44,44.31 281.47,44.50 ZM 209.98 464.02 C201.40,462.04 192.84,459.53 184.48,456.54 C185.40,456.86 186.32,457.17 187.24,457.49 C194.80,460.04 201.46,461.84 202.04,461.48 C202.61,461.12 203.63,461.28 204.29,461.82 C205.24,462.60 207.40,463.39 209.98,464.02 ZM 227.92 44.66 C227.65,44.92 227.39,45.27 227.15,45.70 C226.36,47.10 225.92,47.18 224.67,46.14 C224.17,45.73 223.65,45.48 222.97,45.40 C224.62,45.13 226.28,44.88 227.92,44.66 ZM 111.36 411.87 C102.72,404.31 96.00,397.73 96.00,396.28 C96.00,397.16 103.59,404.76 111.36,411.87 ZM 64.45 349.50 C59.83,340.03 55.97,330.39 52.85,320.57 C55.99,329.97 60.35,341.09 64.45,349.50 ZM 149.20 440.29 C146.57,438.77 144.00,437.19 141.50,435.58 C140.03,434.63 138.39,433.49 136.63,432.23 C140.78,435.11 144.95,437.79 149.20,440.29 ZM 314.98 51.55 C314.64,51.49 314.29,51.44 313.94,51.40 C311.53,51.11 309.02,50.43 308.38,49.90 C308.01,49.60 307.56,49.35 307.15,49.22 C307.50,49.30 307.90,49.50 308.25,49.79 C308.97,50.39 311.65,51.12 314.21,51.43 C314.44,51.46 314.70,51.50 314.98,51.55 Z" fill="rgba(136,193,70,1)"/>
<path d="M 236.18 467.41 C234.42,466.18 233.60,466.09 232.51,467.00 C230.93,468.31 227.00,467.45 227.00,465.79 C227.00,465.10 225.29,464.92 222.13,465.30 C217.24,465.88 206.73,463.83 204.29,461.82 C203.63,461.28 202.61,461.12 202.04,461.48 C201.46,461.84 194.80,460.04 187.24,457.49 C161.20,448.69 140.34,436.76 118.50,418.19 C109.10,410.20 96.00,397.44 96.00,396.28 C96.00,395.58 95.08,394.45 93.96,393.76 C88.54,390.42 73.14,367.32 64.45,349.50 C56.19,332.56 46.88,304.62 48.58,301.87 C48.85,301.44 48.32,298.79 47.40,295.98 C45.96,291.60 45.92,290.52 47.09,288.34 C48.30,286.08 48.24,285.65 46.53,284.40 C45.04,283.31 44.88,282.72 45.80,281.80 C47.75,279.85 47.26,275.88 45.00,275.29 C42.60,274.66 42.23,270.23 44.50,269.36 C45.73,268.89 46.00,266.43 46.00,255.86 C46.00,245.30 45.73,242.83 44.50,242.36 C42.18,241.47 42.63,237.33 45.12,236.68 C46.88,236.22 47.16,235.56 46.76,232.83 C46.50,231.01 46.63,228.85 47.07,228.01 C47.50,227.18 48.36,223.12 48.98,219.00 C54.15,184.43 73.71,143.00 96.42,118.50 C97.86,116.93 99.29,114.72 99.59,113.58 C99.89,112.44 102.05,110.33 104.38,108.91 C106.90,107.37 109.33,104.82 110.36,102.66 C111.31,100.64 112.77,99.00 113.60,99.00 C114.42,99.00 116.66,97.54 118.57,95.75 C120.47,93.96 123.04,91.73 124.27,90.79 C125.50,89.85 127.98,87.89 129.78,86.43 C134.22,82.83 147.30,74.00 148.19,74.00 C148.58,74.00 151.06,72.54 153.70,70.76 C159.18,67.06 184.52,56.25 191.50,54.63 C192.05,54.51 193.62,53.77 195.00,53.00 C196.38,52.22 198.29,51.71 199.25,51.86 C200.21,52.01 201.00,51.66 201.00,51.09 C201.00,50.53 201.63,50.30 202.40,50.60 C203.17,50.89 204.07,50.70 204.40,50.16 C204.73,49.63 205.90,49.42 207.00,49.71 C208.20,50.02 209.00,49.74 209.00,49.01 C209.00,48.29 209.67,48.04 210.63,48.41 C211.52,48.75 212.76,48.62 213.38,48.12 C213.99,47.61 216.45,46.67 218.83,46.04 C222.22,45.13 223.48,45.15 224.67,46.14 C225.92,47.18 226.36,47.10 227.15,45.70 C228.35,43.56 229.84,43.54 232.18,45.66 C233.91,47.22 234.17,47.19 236.32,45.16 C238.80,42.84 243.58,42.25 244.23,44.19 C244.80,45.91 266.80,45.97 267.46,44.25 C268.15,42.44 274.03,42.72 276.18,44.66 C277.79,46.12 278.34,46.16 280.61,44.94 C282.94,43.69 283.34,43.75 284.64,45.52 C285.79,47.09 286.25,47.22 286.91,46.14 C287.86,44.61 292.00,45.47 292.00,47.20 C292.00,47.87 293.43,48.03 295.93,47.63 C298.17,47.27 301.08,47.50 302.68,48.16 C304.23,48.80 305.88,49.23 306.36,49.13 C306.83,49.02 307.74,49.37 308.38,49.90 C309.02,50.43 311.53,51.11 313.94,51.40 C316.36,51.69 318.60,52.33 318.92,52.82 C319.81,54.18 323.66,56.00 325.65,56.00 C331.41,56.00 375.78,81.15 386.35,90.41 C389.10,92.81 390.20,92.98 397.71,92.14 C398.77,92.02 414.56,60.88 418.66,50.83 C421.19,44.62 422.67,45.25 424.49,53.31 C425.39,57.26 429.65,71.07 433.97,84.00 C445.75,119.29 453.67,147.10 457.13,165.36 C457.66,168.19 458.54,172.75 459.08,175.50 C459.61,178.25 460.05,181.49 460.04,182.70 C460.04,183.91 460.48,185.18 461.02,185.51 C461.56,185.85 461.74,187.17 461.42,188.45 C461.10,189.74 461.35,191.10 461.98,191.49 C462.65,191.90 462.87,193.33 462.51,194.97 C462.07,196.96 462.33,197.91 463.44,198.34 C464.73,198.83 464.79,199.37 463.79,201.56 C462.73,203.88 462.86,204.39 464.88,205.91 C466.92,207.45 466.99,207.76 465.58,208.94 C463.35,210.78 463.60,214.08 466.00,214.71 C468.34,215.32 468.68,218.52 466.50,219.36 C464.14,220.27 464.54,226.07 467.00,226.71 C469.48,227.36 469.87,233.45 467.50,234.36 C466.25,234.84 466.00,237.76 466.00,252.00 C466.00,266.24 466.25,269.16 467.50,269.64 C469.68,270.48 469.34,273.68 467.00,274.29 C464.56,274.93 464.33,278.60 466.57,281.08 C468.02,282.68 467.97,282.87 466.05,283.49 C464.48,283.98 463.96,284.96 463.98,287.33 C464.05,292.71 463.87,294.43 463.06,296.50 C462.62,297.60 461.07,303.40 459.60,309.39 C448.38,355.13 418.14,398.99 377.52,428.43 C367.30,435.83 361.57,439.35 352.74,443.65 C349.02,445.45 344.94,447.97 343.67,449.24 C342.34,450.57 339.91,451.66 337.93,451.81 C336.04,451.95 332.76,453.22 330.63,454.63 C325.78,457.84 316.68,460.86 309.96,461.50 C307.13,461.77 304.32,462.30 303.71,462.68 C303.10,463.06 301.68,463.43 300.55,463.51 C293.08,464.06 284.89,465.37 284.45,466.08 C284.16,466.54 282.78,466.49 281.38,465.95 C279.36,465.19 278.31,465.40 276.28,466.99 C273.21,469.41 270.14,469.57 268.56,467.41 C267.55,466.03 266.62,465.97 261.42,467.00 C257.31,467.81 253.82,467.88 250.23,467.22 C246.15,466.48 244.77,466.57 243.89,467.64 C242.37,469.46 238.96,469.36 236.18,467.41 ZM 184.00 394.14 C184.00,395.36 303.03,395.21 318.60,393.98 C345.20,391.87 365.10,387.06 382.50,378.53 C395.43,372.20 407.50,362.96 415.51,353.29 C449.91,311.74 457.05,246.78 436.84,159.13 C430.85,133.17 420.66,98.00 419.12,98.00 C418.72,98.00 416.54,101.26 414.26,105.25 C392.39,143.61 344.10,177.20 296.81,186.96 C285.23,189.35 272.90,190.65 248.50,192.03 C217.11,193.82 201.69,196.70 184.95,203.91 C149.99,218.99 127.20,246.30 119.79,282.00 C117.11,294.86 117.68,317.75 120.95,328.97 C123.97,339.31 130.16,350.77 136.31,357.40 C142.29,363.85 152.29,370.18 155.41,369.50 C199.64,359.88 243.23,348.07 262.66,340.46 C318.84,318.43 369.47,273.01 394.13,222.50 C397.38,215.85 399.99,211.51 400.00,212.77 C400.00,216.28 392.40,238.18 387.64,248.35 C376.48,272.18 359.91,295.23 338.57,316.57 C322.46,332.68 308.38,343.85 291.54,353.88 C274.91,363.79 262.78,368.61 228.50,378.96 C203.54,386.50 184.00,393.16 184.00,394.14 ZM 147.59 413.73 C160.28,420.99 174.79,408.22 169.53,394.44 C166.07,385.39 156.59,381.74 148.06,386.19 C141.58,389.56 139.50,392.92 139.50,400.00 C139.50,406.85 141.50,410.25 147.59,413.73 Z" fill="rgba(139,195,74,1)"/>
<path d="M 147.59 413.73 C141.50,410.25 139.50,406.85 139.50,400.00 C139.50,392.92 141.58,389.56 148.06,386.19 C156.59,381.74 166.07,385.39 169.53,394.44 C174.79,408.22 160.28,420.99 147.59,413.73 ZM 184.00 394.14 C184.00,393.16 203.54,386.50 228.50,378.96 C262.78,368.61 274.91,363.79 291.54,353.88 C308.38,343.85 322.46,332.68 338.57,316.57 C359.91,295.23 376.48,272.18 387.64,248.35 C392.40,238.18 400.00,216.28 400.00,212.77 C399.99,211.51 397.38,215.85 394.13,222.50 C369.47,273.01 318.84,318.43 262.66,340.46 C243.23,348.07 199.64,359.88 155.41,369.50 C152.29,370.18 142.29,363.85 136.31,357.40 C130.16,350.77 123.97,339.31 120.95,328.97 C117.68,317.75 117.11,294.86 119.79,282.00 C127.20,246.30 149.99,218.99 184.95,203.91 C201.69,196.70 217.11,193.82 248.50,192.03 C272.90,190.65 285.23,189.35 296.81,186.96 C344.10,177.20 392.39,143.61 414.26,105.25 C416.54,101.26 418.72,98.00 419.12,98.00 C420.66,98.00 430.85,133.17 436.84,159.13 C457.05,246.78 449.91,311.74 415.51,353.29 C407.50,362.96 395.43,372.20 382.50,378.53 C365.10,387.06 345.20,391.87 318.60,393.98 C303.03,395.21 184.00,395.36 184.00,394.14 Z" fill="rgba(254,254,254,1)"/>
</g>
</svg>